# Bass wireframe — pre-computed from LowPolyBass.stl
# 547 vertices, 1627 edges
o bass_wireframe
v 0.000000 -0.420000 -1.680000
v 0.000000 -0.280000 -1.680000
v 0.000000 -0.280000 -1.540000
v 0.000000 -0.140000 -1.540000
v 0.000000 -0.140000 -1.680000
v 0.000000 0.000000 -1.680000
v 0.000000 -0.140000 -1.400000
v 0.000000 0.000000 -1.540000
v 0.000000 -0.280000 -1.400000
v 0.000000 0.000000 -1.400000
v 0.000000 0.000000 -1.260000
v 0.140000 0.000000 -1.260000
v 0.000000 0.140000 -1.260000
v 0.000000 0.140000 -1.400000
v 0.140000 0.140000 -1.260000
v 0.000000 0.140000 -1.540000
v 0.140000 -0.140000 -1.260000
v 0.000000 -0.140000 -1.260000
v 0.000000 0.280000 -1.400000
v 0.000000 0.280000 -1.260000
v 0.000000 0.140000 -1.120000
v -0.140000 0.140000 -1.120000
v -0.140000 0.140000 -1.260000
v -0.140000 0.000000 -1.260000
v -0.140000 0.000000 -1.120000
v -0.140000 0.140000 -0.980000
v -0.140000 0.000000 -0.980000
v -0.140000 -0.140000 -1.260000
v -0.140000 0.140000 -0.840000
v 0.000000 0.140000 -0.980000
v -0.140000 0.000000 -0.840000
v 0.000000 0.140000 -0.840000
v -0.140000 0.140000 -0.700000
v -0.140000 0.000000 -0.700000
v -0.140000 -0.140000 -0.700000
v -0.140000 -0.140000 -0.840000
v -0.140000 -0.140000 -0.980000
v -0.140000 -0.140000 -1.120000
v 0.000000 0.420000 -1.680000
v 0.000000 0.280000 -1.680000
v 0.000000 0.280000 -1.540000
v 0.000000 0.420000 -1.540000
v 0.140000 0.280000 -1.680000
v 0.000000 0.140000 -1.680000
v 0.140000 0.140000 -1.680000
v 0.000000 -0.420000 -1.540000
v 0.140000 0.140000 -1.120000
v 0.140000 0.000000 -1.120000
v 0.140000 0.000000 -0.980000
v 0.140000 0.140000 -0.980000
v 0.140000 -0.140000 -1.120000
v 0.140000 -0.140000 -0.980000
v 0.140000 -0.140000 -0.840000
v 0.140000 0.140000 -0.840000
v 0.140000 0.000000 -0.840000
v 0.140000 0.140000 -0.700000
v 0.140000 0.000000 -0.700000
v 0.140000 0.280000 -0.700000
v 0.000000 0.280000 -0.700000
v 0.000000 0.280000 -0.840000
v 0.140000 0.140000 -0.560000
v 0.140000 0.000000 -0.560000
v 0.140000 -0.140000 -0.700000
v 0.000000 -0.140000 -1.120000
v 0.000000 -0.140000 -0.980000
v 0.000000 -0.280000 -1.260000
v 0.000000 -0.140000 -0.840000
v 0.140000 -0.280000 -0.840000
v 0.140000 -0.280000 -0.700000
v 0.140000 -0.140000 -0.560000
v 0.140000 -0.280000 -0.560000
v 0.280000 -0.140000 -0.560000
v 0.140000 -0.140000 -0.420000
v 0.280000 -0.140000 -0.420000
v 0.140000 0.140000 -0.420000
v 0.140000 0.280000 -0.560000
v 0.140000 0.280000 -0.420000
v 0.280000 0.140000 -0.420000
v 0.140000 0.000000 -0.420000
v 0.280000 0.000000 -0.420000
v 0.280000 0.000000 -0.560000
v 0.280000 0.140000 -0.280000
v 0.140000 0.280000 -0.280000
v 0.280000 0.280000 -0.280000
v 0.280000 0.000000 -0.280000
v 0.280000 0.140000 -0.140000
v 0.280000 0.280000 -0.140000
v 0.000000 0.280000 -0.560000
v 0.000000 0.280000 -0.420000
v 0.000000 0.420000 -0.420000
v 0.140000 0.420000 -0.420000
v 0.140000 0.420000 -0.280000
v 0.140000 0.280000 -0.140000
v 0.140000 0.420000 -0.140000
v 0.000000 0.420000 -0.140000
v 0.000000 0.420000 -0.280000
v -0.140000 0.420000 -0.280000
v -0.140000 0.280000 -0.420000
v -0.140000 0.420000 -0.140000
v 0.000000 0.560000 -0.140000
v 0.140000 0.420000 0.000000
v 0.000000 0.420000 0.000000
v 0.000000 0.560000 0.000000
v 0.000000 0.420000 0.140000
v 0.140000 0.420000 0.140000
v 0.140000 0.560000 0.140000
v 0.000000 0.560000 0.140000
v -0.140000 0.280000 -0.280000
v -0.140000 0.420000 -0.420000
v -0.140000 0.280000 -0.140000
v -0.140000 0.420000 0.000000
v -0.140000 0.280000 0.000000
v -0.280000 0.280000 -0.140000
v -0.280000 0.280000 -0.280000
v -0.280000 0.280000 0.000000
v -0.280000 0.140000 -0.140000
v -0.280000 0.140000 0.000000
v -0.280000 0.140000 -0.280000
v -0.280000 0.000000 -0.140000
v -0.280000 0.000000 -0.280000
v -0.140000 0.140000 -0.420000
v -0.280000 0.140000 -0.420000
v -0.280000 0.000000 -0.420000
v -0.280000 -0.140000 -0.420000
v -0.140000 0.000000 -0.420000
v -0.140000 0.000000 -0.560000
v -0.140000 0.140000 -0.560000
v -0.280000 0.000000 -0.560000
v -0.140000 -0.140000 -0.560000
v 0.000000 -0.280000 -0.840000
v 0.000000 -0.280000 -0.700000
v 0.000000 -0.280000 -0.560000
v 0.140000 -0.280000 -0.420000
v 0.280000 -0.140000 -0.280000
v 0.280000 -0.280000 -0.420000
v 0.140000 -0.420000 -0.420000
v 0.000000 -0.420000 -0.560000
v 0.000000 -0.420000 -0.420000
v 0.000000 -0.420000 -0.700000
v 0.000000 -0.560000 -0.700000
v 0.000000 -0.560000 -0.560000
v 0.000000 -0.420000 -0.840000
v 0.000000 -0.560000 -0.840000
v 0.000000 -0.280000 -0.980000
v 0.000000 -0.420000 -0.980000
v -0.140000 0.280000 -1.680000
v -0.140000 0.140000 -1.680000
v -0.140000 0.280000 -1.540000
v -0.140000 0.140000 -1.540000
v 0.140000 0.280000 -1.540000
v 0.140000 0.140000 -1.540000
v 0.000000 0.420000 -1.400000
v -0.140000 -0.280000 -0.700000
v 0.000000 0.140000 -0.700000
v -0.140000 0.280000 -0.560000
v -0.140000 0.280000 -0.700000
v 0.000000 0.420000 -0.560000
v 0.000000 0.560000 -0.560000
v 0.000000 0.560000 -0.420000
v 0.000000 0.420000 -0.840000
v 0.000000 0.420000 -0.700000
v 0.000000 0.560000 -0.840000
v 0.000000 0.560000 -0.700000
v -0.140000 -0.280000 -0.840000
v -0.280000 -0.140000 -0.560000
v -0.140000 -0.140000 -0.420000
v -0.140000 -0.280000 -0.560000
v -0.140000 -0.280000 -0.420000
v -0.280000 -0.280000 -0.420000
v -0.140000 -0.420000 -0.420000
v 0.000000 -0.420000 -0.280000
v -0.140000 -0.420000 -0.280000
v -0.140000 -0.280000 -0.280000
v 0.140000 -0.280000 -0.280000
v 0.140000 -0.420000 -0.280000
v 0.000000 -0.420000 -0.140000
v -0.140000 -0.420000 -0.140000
v 0.140000 -0.420000 -0.140000
v 0.280000 -0.280000 -0.280000
v 0.280000 -0.140000 -0.140000
v 0.280000 -0.280000 -0.140000
v 0.280000 0.000000 -0.140000
v 0.280000 0.140000 0.000000
v 0.280000 0.000000 0.000000
v 0.280000 0.280000 0.000000
v 0.140000 0.280000 0.000000
v 0.000000 -0.420000 0.000000
v -0.140000 -0.420000 0.000000
v -0.280000 -0.280000 -0.280000
v -0.140000 -0.280000 -0.140000
v 0.140000 -0.420000 0.000000
v 0.140000 -0.280000 -0.140000
v 0.280000 -0.420000 -0.140000
v 0.280000 -0.280000 0.000000
v 0.280000 -0.420000 0.000000
v 0.280000 -0.140000 0.000000
v 0.280000 -0.280000 0.140000
v 0.280000 -0.140000 0.140000
v 0.280000 0.000000 0.140000
v 0.280000 0.000000 0.280000
v 0.280000 0.140000 0.140000
v 0.140000 0.280000 0.140000
v 0.280000 0.280000 0.140000
v 0.000000 0.560000 0.280000
v -0.140000 0.420000 0.140000
v -0.140000 0.280000 0.140000
v -0.280000 0.280000 0.140000
v -0.280000 0.000000 0.000000
v -0.280000 0.000000 0.140000
v -0.280000 0.140000 0.140000
v -0.280000 -0.140000 -0.280000
v -0.280000 -0.280000 -0.140000
v 0.000000 -0.420000 0.140000
v 0.140000 -0.420000 0.140000
v 0.280000 -0.420000 0.140000
v 0.280000 -0.280000 0.280000
v 0.280000 -0.280000 0.420000
v 0.280000 -0.420000 0.280000
v 0.140000 -0.420000 0.280000
v -0.140000 -0.420000 0.140000
v -0.280000 -0.420000 0.000000
v -0.280000 -0.420000 0.140000
v -0.140000 -0.420000 0.280000
v 0.000000 -0.420000 0.280000
v 0.000000 -0.420000 0.420000
v 0.140000 -0.420000 0.420000
v -0.140000 -0.420000 0.420000
v 0.280000 -0.140000 0.280000
v 0.280000 -0.140000 0.420000
v 0.280000 -0.420000 0.420000
v 0.280000 -0.280000 0.560000
v 0.280000 0.000000 0.420000
v 0.280000 0.140000 0.280000
v 0.280000 0.280000 0.280000
v 0.000000 0.420000 0.280000
v 0.140000 0.420000 0.280000
v 0.140000 0.560000 0.280000
v 0.280000 0.140000 0.420000
v 0.280000 0.280000 0.420000
v 0.280000 0.420000 0.420000
v 0.140000 0.420000 0.420000
v 0.140000 0.420000 0.560000
v 0.280000 0.420000 0.280000
v -0.280000 -0.140000 -0.140000
v -0.280000 -0.420000 -0.140000
v -0.280000 -0.280000 0.000000
v -0.280000 -0.280000 0.140000
v -0.280000 -0.140000 0.140000
v -0.280000 -0.140000 0.000000
v -0.280000 -0.280000 0.280000
v -0.280000 -0.420000 0.280000
v -0.280000 -0.280000 0.420000
v -0.280000 -0.420000 0.420000
v 0.000000 -0.420000 0.560000
v 0.000000 -0.420000 0.700000
v -0.140000 -0.420000 0.560000
v -0.140000 -0.420000 0.700000
v 0.000000 -0.420000 0.840000
v -0.280000 -0.420000 0.560000
v -0.280000 -0.420000 0.700000
v -0.140000 -0.420000 0.840000
v 0.140000 -0.420000 0.560000
v 0.140000 -0.420000 0.700000
v 0.140000 -0.420000 0.840000
v 0.280000 -0.420000 0.560000
v 0.280000 -0.420000 0.700000
v 0.280000 -0.280000 0.700000
v 0.280000 -0.420000 0.840000
v 0.280000 -0.280000 0.840000
v -0.280000 -0.140000 0.280000
v -0.140000 -0.560000 0.560000
v -0.140000 -0.560000 0.420000
v -0.140000 -0.560000 0.280000
v -0.140000 -0.700000 0.280000
v -0.140000 -0.700000 0.420000
v -0.140000 -0.700000 0.140000
v -0.140000 -0.560000 0.140000
v 0.000000 0.700000 0.000000
v 0.000000 0.700000 0.140000
v 0.000000 0.700000 0.280000
v 0.000000 0.560000 0.420000
v 0.000000 0.560000 0.560000
v -0.140000 0.560000 0.420000
v -0.140000 0.420000 0.420000
v -0.140000 0.420000 0.560000
v 0.140000 0.560000 0.420000
v 0.140000 0.560000 0.560000
v -0.140000 0.420000 0.700000
v 0.000000 0.420000 0.700000
v 0.000000 0.560000 0.700000
v -0.140000 0.420000 0.840000
v -0.280000 0.420000 0.700000
v -0.280000 0.280000 0.700000
v -0.280000 0.280000 0.840000
v -0.280000 0.420000 0.840000
v -0.140000 0.420000 0.980000
v -0.140000 0.280000 0.980000
v -0.280000 0.280000 0.980000
v -0.280000 0.140000 0.840000
v -0.280000 0.140000 0.700000
v -0.280000 0.280000 0.560000
v -0.140000 0.280000 0.700000
v -0.140000 0.280000 0.560000
v -0.280000 0.140000 0.560000
v -0.420000 0.140000 0.560000
v -0.420000 0.140000 0.700000
v -0.420000 0.000000 0.560000
v -0.280000 0.000000 0.560000
v -0.420000 -0.140000 0.560000
v -0.280000 0.140000 0.420000
v -0.280000 0.000000 0.420000
v -0.280000 -0.140000 0.560000
v -0.280000 0.000000 0.280000
v -0.280000 -0.140000 0.420000
v -0.420000 -0.140000 0.420000
v -0.280000 0.140000 0.280000
v -0.280000 0.280000 0.280000
v -0.140000 0.280000 0.280000
v -0.140000 0.420000 0.280000
v -0.280000 0.280000 0.420000
v -0.140000 0.560000 0.280000
v -0.140000 0.560000 0.140000
v -0.420000 -0.280000 0.280000
v -0.420000 -0.280000 0.420000
v -0.280000 -0.280000 0.560000
v -0.280000 -0.700000 0.280000
v -0.420000 -0.140000 0.140000
v -0.560000 -0.140000 0.140000
v -0.420000 -0.280000 0.140000
v -0.560000 0.000000 0.140000
v -0.420000 -0.140000 0.280000
v -0.420000 0.000000 0.280000
v -0.560000 0.000000 0.280000
v -0.560000 -0.140000 0.280000
v -0.420000 0.000000 0.420000
v 0.420000 -0.140000 0.140000
v 0.560000 -0.140000 0.140000
v 0.420000 -0.280000 0.140000
v 0.420000 -0.140000 0.280000
v 0.560000 0.000000 0.140000
v 0.420000 0.000000 0.140000
v 0.420000 0.000000 0.280000
v 0.560000 0.000000 0.280000
v 0.560000 -0.140000 0.280000
v 0.420000 -0.280000 0.280000
v 0.420000 -0.280000 0.420000
v 0.420000 -0.140000 0.420000
v 0.420000 -0.140000 0.560000
v 0.280000 -0.140000 0.560000
v 0.280000 0.000000 0.560000
v 0.280000 0.280000 0.560000
v 0.280000 0.140000 0.560000
v 0.280000 0.280000 0.700000
v 0.280000 0.420000 0.560000
v 0.140000 0.280000 0.560000
v 0.140000 0.280000 0.700000
v 0.140000 0.420000 0.700000
v 0.000000 0.560000 0.840000
v 0.140000 0.420000 0.840000
v 0.000000 0.420000 0.840000
v 0.000000 0.420000 0.980000
v -0.140000 0.420000 1.120000
v -0.140000 0.280000 1.120000
v -0.280000 0.280000 1.120000
v -0.280000 0.140000 1.120000
v -0.280000 0.140000 0.980000
v -0.420000 0.140000 0.840000
v -0.420000 0.000000 0.700000
v -0.420000 0.000000 0.840000
v -0.280000 0.000000 0.840000
v -0.420000 -0.140000 0.840000
v -0.420000 -0.140000 0.700000
v -0.280000 -0.280000 0.700000
v -0.280000 -0.420000 0.840000
v -0.140000 -0.420000 0.980000
v 0.000000 -0.420000 0.980000
v 0.280000 -0.420000 0.980000
v 0.280000 -0.280000 0.980000
v 0.420000 -0.280000 0.700000
v 0.420000 -0.140000 0.700000
v 0.280000 -0.140000 0.700000
v 0.420000 -0.140000 0.840000
v 0.420000 -0.280000 0.840000
v 0.420000 -0.280000 0.980000
v 0.420000 -0.140000 0.980000
v 0.140000 -0.420000 0.980000
v 0.280000 -0.420000 1.120000
v 0.140000 -0.420000 1.120000
v 0.280000 -0.280000 1.120000
v 0.140000 -0.280000 1.120000
v 0.140000 -0.700000 0.140000
v 0.140000 -0.700000 0.280000
v 0.140000 -0.560000 0.140000
v 0.140000 -0.560000 0.280000
v 0.140000 -0.560000 0.420000
v 0.140000 -0.700000 0.420000
v 0.140000 -0.560000 0.560000
v 0.280000 -0.700000 0.280000
v 0.420000 0.000000 0.420000
v 0.280000 0.420000 0.700000
v 0.280000 0.280000 0.840000
v 0.280000 0.140000 0.700000
v 0.280000 0.140000 0.840000
v 0.280000 0.420000 0.840000
v 0.140000 0.420000 0.980000
v 0.280000 0.280000 0.980000
v 0.000000 0.420000 1.120000
v -0.140000 0.280000 1.260000
v -0.280000 0.280000 1.260000
v -0.140000 0.420000 1.260000
v 0.140000 0.420000 1.120000
v 0.140000 0.280000 1.120000
v 0.000000 0.420000 1.260000
v 0.140000 0.420000 1.260000
v 0.140000 0.280000 1.260000
v 0.140000 0.280000 0.980000
v 0.000000 0.280000 1.260000
v 0.280000 0.280000 1.120000
v 0.280000 0.140000 0.980000
v 0.280000 0.140000 1.120000
v 0.000000 0.280000 1.400000
v 0.280000 0.280000 1.260000
v 0.420000 0.140000 0.560000
v 0.420000 0.000000 0.560000
v 0.420000 0.000000 0.700000
v 0.420000 0.140000 0.700000
v 0.420000 0.140000 0.840000
v 0.280000 0.000000 0.840000
v 0.420000 0.000000 0.840000
v -0.280000 -0.140000 0.700000
v -0.420000 -0.280000 0.700000
v -0.280000 -0.280000 0.840000
v -0.420000 -0.140000 0.980000
v -0.420000 -0.280000 0.840000
v -0.420000 -0.280000 0.980000
v -0.280000 -0.280000 0.980000
v -0.420000 0.000000 0.980000
v -0.420000 -0.140000 1.120000
v -0.420000 0.140000 0.980000
v -0.420000 0.000000 1.120000
v -0.420000 -0.280000 1.120000
v -0.280000 -0.280000 1.120000
v -0.280000 -0.280000 1.260000
v -0.140000 -0.280000 1.120000
v -0.140000 -0.280000 1.260000
v 0.420000 0.000000 0.980000
v 0.420000 0.140000 0.980000
v -0.280000 -0.420000 0.980000
v -0.140000 -0.420000 1.120000
v 0.000000 -0.420000 1.120000
v 0.000000 -0.420000 1.260000
v 0.140000 -0.420000 1.260000
v -0.280000 0.000000 0.980000
v -0.280000 0.000000 1.120000
v -0.140000 -0.420000 1.260000
v -0.140000 -0.420000 1.400000
v 0.280000 0.000000 0.980000
v 0.280000 0.000000 1.120000
v 0.420000 0.000000 1.120000
v 0.280000 0.140000 1.260000
v 0.280000 0.000000 1.260000
v 0.420000 0.000000 1.260000
v 0.420000 -0.140000 1.120000
v 0.420000 -0.140000 1.260000
v 0.280000 -0.140000 1.260000
v 0.280000 -0.140000 1.120000
v 0.420000 -0.280000 1.120000
v -0.280000 -0.140000 1.120000
v -0.280000 -0.140000 1.260000
v -0.140000 -0.280000 1.400000
v 0.000000 -0.420000 1.400000
v 0.140000 -0.420000 1.400000
v 0.140000 -0.280000 1.260000
v 0.280000 -0.280000 1.260000
v 0.280000 -0.280000 1.400000
v 0.280000 -0.140000 1.400000
v 0.280000 0.000000 1.400000
v -0.280000 -0.140000 1.400000
v -0.280000 -0.280000 1.400000
v -0.140000 -0.420000 1.540000
v 0.140000 -0.280000 1.400000
v 0.000000 -0.420000 1.540000
v 0.140000 -0.420000 1.540000
v 0.140000 -0.280000 1.540000
v 0.140000 -0.420000 1.680000
v 0.000000 -0.420000 1.680000
v 0.140000 -0.280000 1.680000
v 0.280000 -0.280000 1.540000
v -0.280000 -0.420000 1.120000
v -0.280000 0.140000 1.260000
v -0.140000 0.280000 1.400000
v 0.000000 0.420000 1.400000
v -0.140000 0.140000 1.400000
v -0.280000 0.140000 1.400000
v -0.140000 0.140000 1.540000
v -0.280000 0.140000 1.540000
v -0.280000 0.000000 1.260000
v -0.280000 0.000000 1.400000
v -0.420000 0.000000 1.260000
v 0.280000 0.140000 1.400000
v 0.140000 0.280000 1.400000
v 0.000000 -0.140000 1.260000
v 0.000000 0.000000 1.400000
v 0.000000 0.000000 1.260000
v 0.140000 -0.140000 1.260000
v -0.140000 -0.140000 1.260000
v 0.000000 -0.140000 1.400000
v 0.140000 -0.140000 1.400000
v 0.000000 -0.280000 1.260000
v 0.000000 -0.280000 1.400000
v -0.140000 -0.140000 1.400000
v -0.140000 0.000000 1.400000
v 0.000000 -0.280000 1.540000
v -0.140000 -0.280000 1.540000
v 0.140000 0.000000 1.400000
v 0.140000 0.000000 1.540000
v 0.140000 0.140000 1.540000
v 0.280000 0.000000 1.540000
v 0.000000 -0.280000 1.680000
v -0.140000 -0.280000 1.680000
v -0.140000 -0.140000 1.540000
v -0.280000 -0.140000 1.540000
v 0.140000 0.140000 1.400000
v 0.140000 0.280000 1.540000
v 0.280000 0.140000 1.540000
v 0.000000 0.280000 1.540000
v -0.280000 -0.280000 1.540000
v -0.140000 -0.420000 1.680000
v -0.420000 -0.140000 1.400000
v -0.420000 -0.140000 1.540000
v -0.280000 0.000000 1.540000
v -0.280000 -0.280000 1.680000
v 0.280000 -0.140000 1.540000
v 0.140000 -0.140000 1.540000
v 0.280000 -0.280000 1.680000
v 0.000000 0.000000 1.540000
v 0.420000 -0.140000 1.540000
v 0.000000 0.140000 1.540000
v -0.140000 0.000000 1.540000
v -0.140000 0.140000 1.680000
v 0.420000 -0.140000 1.400000
v 0.140000 0.140000 1.680000
v -0.140000 0.280000 1.540000
v -0.140000 0.280000 1.680000
v 0.000000 0.140000 1.680000
v 0.000000 0.280000 1.680000
v 0.140000 0.280000 1.680000
l 4 3
l 3 2
l 2 4
l 3 5
l 5 2
l 4 5
l 8 4
l 5 8
l 5 6
l 6 8
l 4 9
l 9 3
l 4 7
l 7 9
l 4 10
l 10 7
l 8 10
l 11 10
l 10 13
l 13 11
l 10 14
l 14 13
l 13 15
l 15 11
l 15 12
l 12 11
l 8 14
l 8 16
l 16 14
l 12 17
l 17 11
l 17 18
l 18 11
l 18 7
l 10 18
l 14 19
l 19 20
l 20 14
l 20 13
l 22 21
l 21 13
l 13 22
l 13 23
l 23 22
l 11 23
l 11 24
l 24 23
l 10 24
l 24 25
l 25 23
l 25 22
l 27 26
l 26 22
l 22 27
l 25 27
l 27 29
l 29 26
l 26 21
l 30 21
l 26 30
l 31 29
l 27 31
l 29 30
l 29 32
l 32 30
l 31 34
l 34 29
l 34 33
l 33 29
l 36 31
l 31 37
l 37 36
l 27 37
l 25 38
l 38 27
l 38 37
l 25 28
l 28 38
l 24 28
l 11 28
l 28 18
l 18 38
l 11 14
l 8 7
l 41 40
l 40 42
l 42 41
l 40 39
l 39 42
l 41 39
l 43 44
l 44 40
l 40 43
l 43 45
l 45 44
l 16 41
l 41 44
l 44 16
l 44 6
l 6 16
l 2 1
l 1 3
l 1 46
l 46 2
l 46 3
l 21 47
l 47 13
l 47 15
l 47 48
l 48 15
l 48 12
l 49 48
l 47 49
l 50 47
l 21 50
l 30 50
l 50 49
l 48 17
l 51 17
l 48 51
l 49 51
l 52 51
l 49 52
l 53 52
l 49 53
l 32 50
l 32 54
l 54 50
l 54 49
l 54 55
l 55 49
l 32 56
l 56 54
l 56 55
l 56 57
l 57 55
l 55 53
l 59 58
l 58 56
l 56 59
l 32 59
l 32 60
l 60 59
l 56 61
l 61 57
l 63 53
l 53 57
l 57 63
l 17 64
l 64 18
l 51 64
l 52 64
l 52 65
l 65 64
l 18 9
l 18 66
l 66 9
l 64 38
l 65 37
l 38 65
l 52 67
l 67 65
l 53 67
l 53 68
l 68 67
l 63 69
l 69 53
l 69 68
l 63 70
l 70 71
l 71 63
l 71 69
l 57 70
l 57 62
l 62 70
l 61 62
l 73 70
l 70 74
l 74 73
l 70 72
l 72 74
l 76 61
l 56 76
l 58 76
l 76 77
l 77 75
l 75 76
l 75 61
l 75 78
l 78 79
l 79 75
l 79 61
l 78 80
l 80 79
l 80 62
l 62 79
l 81 62
l 80 81
l 81 70
l 81 72
l 81 74
l 80 74
l 82 78
l 75 82
l 83 82
l 82 77
l 77 83
l 84 82
l 83 84
l 82 80
l 85 80
l 82 85
l 58 88
l 88 76
l 59 88
l 88 89
l 89 76
l 89 77
l 89 91
l 91 77
l 93 87
l 87 83
l 83 93
l 87 84
l 87 82
l 83 92
l 92 93
l 94 93
l 92 94
l 96 95
l 95 94
l 94 96
l 92 96
l 96 99
l 99 95
l 95 102
l 102 94
l 102 101
l 101 94
l 95 100
l 100 102
l 100 103
l 103 102
l 105 102
l 102 104
l 104 105
l 105 101
l 102 106
l 106 105
l 103 106
l 97 99
l 96 97
l 108 97
l 97 98
l 98 108
l 97 109
l 109 98
l 109 90
l 90 98
l 97 90
l 96 90
l 90 89
l 89 98
l 108 99
l 108 110
l 110 99
l 110 111
l 111 99
l 110 112
l 112 111
l 113 110
l 110 114
l 114 113
l 108 114
l 113 115
l 115 110
l 115 112
l 113 116
l 116 117
l 117 113
l 117 115
l 114 118
l 118 113
l 118 116
l 120 119
l 119 116
l 116 120
l 108 118
l 118 120
l 121 118
l 108 121
l 122 123
l 123 120
l 120 122
l 118 122
l 121 122
l 98 121
l 121 125
l 125 123
l 123 121
l 125 126
l 126 123
l 121 126
l 121 127
l 127 126
l 34 127
l 127 33
l 34 126
l 34 35
l 35 126
l 35 129
l 129 126
l 128 123
l 126 128
l 130 67
l 68 130
l 69 130
l 69 131
l 131 130
l 71 131
l 132 131
l 71 132
l 133 71
l 70 133
l 73 133
l 133 137
l 137 71
l 133 136
l 136 137
l 136 138
l 138 137
l 137 132
l 138 133
l 132 139
l 139 131
l 137 139
l 141 140
l 140 139
l 139 141
l 137 141
l 139 142
l 142 140
l 142 143
l 143 140
l 142 131
l 142 130
l 139 130
l 144 145
l 145 130
l 130 144
l 145 142
l 146 41
l 40 146
l 44 146
l 147 146
l 44 147
l 146 148
l 148 41
l 149 148
l 146 149
l 147 149
l 147 16
l 16 149
l 19 41
l 41 14
l 148 16
l 41 43
l 151 150
l 150 16
l 16 151
l 44 151
l 7 3
l 16 40
l 6 4
l 41 150
l 150 43
l 43 151
l 16 19
l 42 152
l 152 19
l 19 42
l 67 36
l 36 65
l 130 36
l 60 154
l 154 59
l 32 154
l 29 154
l 33 154
l 98 127
l 98 155
l 155 127
l 127 156
l 156 33
l 155 156
l 33 59
l 156 59
l 156 88
l 155 88
l 89 155
l 90 157
l 157 88
l 88 90
l 158 157
l 90 158
l 159 158
l 90 159
l 59 160
l 160 60
l 59 161
l 161 160
l 161 60
l 160 162
l 162 161
l 162 163
l 163 161
l 161 88
l 153 35
l 35 36
l 36 153
l 36 164
l 164 153
l 131 153
l 153 130
l 164 130
l 157 161
l 158 163
l 161 158
l 96 159
l 36 34
l 124 123
l 128 124
l 129 128
l 129 124
l 129 165
l 165 124
l 166 124
l 129 166
l 35 167
l 167 129
l 167 166
l 167 168
l 168 166
l 166 169
l 169 124
l 168 169
l 153 167
l 167 132
l 132 168
l 137 168
l 138 168
l 138 170
l 170 168
l 170 172
l 172 173
l 173 170
l 173 168
l 170 171
l 171 172
l 138 171
l 137 131
l 140 137
l 174 175
l 175 133
l 133 174
l 175 136
l 171 176
l 176 177
l 177 171
l 175 138
l 175 171
l 175 176
l 175 178
l 178 176
l 133 179
l 179 174
l 133 135
l 135 179
l 135 74
l 74 179
l 74 134
l 134 179
l 133 74
l 181 179
l 134 181
l 134 180
l 180 181
l 80 134
l 85 134
l 85 182
l 182 134
l 182 180
l 82 86
l 86 85
l 86 182
l 86 183
l 183 184
l 184 86
l 184 182
l 87 86
l 185 87
l 93 185
l 87 183
l 185 183
l 186 185
l 93 186
l 94 186
l 153 132
l 90 91
l 92 90
l 92 91
l 92 77
l 174 178
l 176 187
l 187 177
l 187 188
l 188 177
l 177 172
l 177 173
l 173 189
l 189 168
l 189 169
l 173 190
l 190 189
l 177 190
l 191 187
l 176 191
l 178 191
l 192 178
l 174 192
l 192 181
l 181 178
l 181 193
l 193 178
l 192 179
l 181 194
l 194 193
l 194 195
l 195 193
l 180 194
l 180 196
l 196 194
l 182 196
l 184 196
l 196 198
l 198 194
l 198 197
l 197 194
l 184 199
l 199 196
l 199 198
l 200 198
l 199 200
l 184 201
l 201 199
l 183 201
l 101 186
l 105 107
l 107 104
l 106 107
l 103 107
l 105 186
l 105 202
l 202 186
l 202 203
l 203 186
l 203 185
l 203 183
l 203 201
l 206 111
l 112 206
l 112 207
l 207 206
l 115 207
l 206 205
l 205 111
l 117 207
l 208 209
l 209 210
l 210 208
l 210 117
l 117 208
l 116 208
l 119 208
l 211 120
l 120 124
l 124 211
l 211 119
l 190 212
l 212 173
l 212 189
l 177 212
l 169 211
l 189 211
l 213 187
l 187 214
l 214 213
l 191 214
l 195 178
l 197 195
l 197 215
l 215 195
l 216 215
l 197 216
l 216 218
l 218 215
l 191 195
l 215 191
l 215 214
l 220 188
l 187 220
l 213 220
l 221 188
l 220 221
l 220 222
l 222 221
l 223 220
l 220 224
l 224 223
l 213 224
l 224 219
l 219 226
l 226 224
l 226 225
l 225 224
l 224 227
l 227 223
l 225 227
l 213 219
l 214 219
l 215 219
l 218 219
l 216 228
l 228 217
l 217 216
l 228 229
l 229 217
l 230 218
l 216 230
l 217 230
l 228 198
l 200 228
l 200 232
l 232 228
l 201 233
l 233 199
l 233 200
l 234 233
l 201 234
l 203 234
l 204 235
l 235 107
l 107 204
l 235 104
l 235 105
l 235 236
l 236 105
l 235 237
l 237 236
l 105 203
l 234 239
l 239 233
l 239 238
l 238 233
l 240 241
l 241 239
l 239 240
l 241 242
l 242 239
l 239 243
l 243 240
l 243 241
l 234 243
l 105 234
l 236 234
l 236 243
l 204 237
l 189 244
l 244 211
l 212 244
l 245 212
l 177 245
l 177 221
l 221 245
l 221 246
l 246 212
l 212 221
l 221 247
l 247 246
l 248 249
l 249 247
l 247 248
l 249 246
l 249 212
l 249 244
l 222 247
l 222 250
l 250 247
l 222 251
l 251 250
l 252 250
l 251 252
l 223 251
l 251 220
l 226 254
l 254 225
l 225 256
l 256 227
l 254 256
l 254 255
l 255 257
l 257 254
l 257 256
l 259 256
l 257 259
l 257 260
l 260 259
l 255 258
l 258 257
l 261 257
l 258 261
l 254 262
l 262 263
l 263 254
l 263 255
l 255 264
l 264 258
l 263 264
l 226 262
l 262 265
l 265 263
l 266 264
l 263 266
l 266 268
l 268 264
l 269 268
l 266 269
l 268 267
l 267 266
l 265 266
l 266 231
l 231 267
l 265 231
l 230 265
l 262 230
l 226 230
l 217 231
l 265 217
l 244 119
l 249 119
l 249 208
l 111 95
l 111 102
l 95 103
l 250 248
l 253 252
l 251 253
l 227 251
l 227 253
l 271 272
l 272 256
l 256 271
l 272 227
l 273 272
l 272 274
l 274 273
l 272 275
l 275 274
l 276 277
l 277 274
l 274 276
l 277 273
l 276 273
l 273 227
l 273 223
l 223 272
l 280 107
l 107 279
l 279 280
l 280 204
l 281 283
l 283 284
l 284 281
l 284 282
l 282 281
l 285 282
l 284 285
l 281 286
l 286 204
l 204 281
l 237 241
l 241 236
l 286 241
l 237 286
l 282 287
l 287 281
l 287 286
l 287 241
l 287 242
l 282 242
l 285 289
l 289 282
l 289 290
l 290 282
l 288 289
l 285 288
l 288 290
l 292 293
l 293 288
l 288 292
l 293 294
l 294 292
l 294 291
l 291 292
l 291 288
l 295 291
l 294 295
l 297 296
l 296 298
l 298 297
l 296 291
l 291 298
l 294 298
l 291 289
l 299 294
l 293 299
l 293 300
l 300 299
l 288 302
l 302 293
l 288 303
l 303 293
l 303 301
l 301 293
l 285 303
l 304 300
l 293 304
l 301 304
l 304 306
l 306 300
l 304 305
l 305 306
l 307 305
l 304 307
l 304 308
l 308 307
l 306 299
l 309 307
l 308 309
l 304 310
l 310 308
l 310 311
l 311 308
l 308 312
l 312 309
l 311 313
l 313 270
l 270 311
l 270 314
l 314 311
l 314 312
l 312 311
l 270 252
l 252 314
l 311 316
l 316 313
l 316 210
l 210 313
l 209 313
l 209 248
l 248 270
l 270 209
l 208 248
l 207 317
l 317 206
l 317 318
l 318 206
l 318 205
l 319 205
l 318 319
l 317 319
l 205 102
l 205 104
l 316 317
l 207 316
l 316 310
l 310 317
l 310 320
l 320 317
l 310 301
l 301 320
l 303 320
l 301 285
l 285 320
l 284 320
l 281 321
l 321 283
l 321 319
l 319 283
l 319 284
l 321 204
l 204 319
l 205 103
l 205 107
l 104 103
l 107 278
l 278 103
l 279 278
l 205 322
l 322 107
l 204 279
l 228 197
l 210 207
l 250 270
l 252 315
l 315 314
l 323 252
l 252 324
l 324 323
l 323 250
l 324 315
l 323 315
l 312 315
l 252 312
l 252 325
l 325 312
l 309 315
l 309 314
l 253 259
l 259 252
l 259 325
l 271 227
l 327 328
l 328 330
l 330 327
l 331 327
l 327 332
l 332 331
l 330 332
l 329 323
l 323 327
l 327 329
l 323 331
l 329 331
l 330 333
l 333 332
l 331 328
l 334 328
l 331 334
l 332 334
l 334 333
l 330 334
l 315 335
l 335 331
l 331 315
l 335 332
l 336 338
l 338 339
l 339 336
l 337 336
l 336 340
l 340 337
l 341 340
l 340 342
l 342 341
l 336 342
l 339 342
l 343 340
l 342 343
l 343 337
l 337 339
l 337 344
l 344 339
l 343 344
l 343 339
l 339 345
l 345 336
l 345 338
l 346 345
l 339 346
l 339 347
l 347 346
l 216 345
l 345 217
l 346 217
l 348 347
l 347 349
l 349 348
l 347 229
l 229 349
l 232 229
l 232 350
l 350 229
l 350 349
l 238 232
l 200 238
l 239 351
l 351 238
l 352 238
l 351 352
l 242 351
l 242 354
l 354 351
l 242 355
l 355 351
l 355 353
l 353 351
l 355 356
l 356 353
l 355 357
l 357 356
l 242 357
l 357 353
l 290 357
l 357 282
l 289 357
l 290 358
l 358 289
l 289 359
l 359 357
l 289 360
l 360 359
l 358 360
l 291 358
l 296 361
l 361 291
l 361 360
l 360 291
l 362 296
l 297 362
l 297 363
l 363 362
l 297 364
l 364 363
l 365 364
l 364 298
l 298 365
l 366 298
l 298 299
l 299 366
l 367 299
l 306 367
l 306 368
l 368 367
l 305 368
l 307 368
l 368 369
l 369 367
l 369 299
l 369 370
l 370 299
l 372 371
l 371 369
l 369 372
l 368 372
l 309 368
l 260 325
l 260 373
l 373 325
l 257 374
l 374 260
l 374 373
l 261 374
l 377 268
l 269 377
l 378 377
l 269 378
l 267 269
l 267 379
l 379 380
l 380 267
l 380 269
l 379 381
l 381 380
l 381 348
l 348 380
l 380 382
l 382 269
l 382 383
l 383 269
l 383 384
l 384 269
l 382 385
l 385 383
l 385 384
l 384 378
l 377 386
l 386 268
l 377 388
l 388 386
l 377 387
l 387 388
l 387 389
l 389 388
l 389 390
l 390 388
l 377 389
l 378 389
l 104 319
l 319 235
l 317 284
l 391 393
l 393 392
l 392 391
l 394 392
l 393 394
l 394 395
l 395 226
l 226 394
l 396 395
l 394 396
l 392 396
l 392 395
l 219 394
l 397 395
l 395 262
l 262 397
l 324 331
l 230 219
l 226 397
l 339 399
l 399 342
l 347 399
l 345 347
l 217 347
l 349 217
l 349 231
l 349 267
l 349 381
l 381 267
l 238 350
l 352 350
l 356 400
l 400 353
l 400 357
l 402 353
l 353 401
l 401 402
l 401 403
l 403 402
l 353 403
l 404 401
l 401 359
l 359 404
l 401 400
l 400 359
l 359 406
l 406 404
l 406 401
l 359 405
l 405 406
l 362 361
l 362 407
l 407 361
l 360 405
l 361 405
l 363 408
l 408 362
l 408 410
l 410 362
l 410 407
l 407 411
l 411 361
l 411 405
l 407 413
l 413 414
l 414 407
l 414 411
l 415 414
l 413 415
l 412 416
l 416 405
l 405 412
l 411 412
l 411 415
l 415 412
l 417 415
l 413 417
l 412 406
l 406 416
l 412 418
l 418 406
l 418 420
l 420 406
l 420 419
l 419 406
l 227 259
l 423 352
l 352 402
l 402 423
l 423 350
l 424 350
l 423 424
l 424 425
l 425 348
l 348 424
l 426 423
l 402 426
l 353 352
l 428 403
l 403 429
l 429 428
l 425 426
l 426 429
l 429 425
l 425 423
l 426 427
l 427 429
l 427 403
l 428 427
l 430 309
l 312 430
l 372 309
l 430 372
l 373 430
l 430 325
l 424 349
l 425 380
l 403 426
l 432 373
l 374 432
l 431 372
l 430 431
l 373 431
l 433 371
l 371 434
l 434 433
l 434 435
l 435 433
l 431 371
l 432 434
l 371 432
l 431 432
l 436 435
l 434 436
l 433 369
l 433 437
l 437 369
l 433 438
l 438 437
l 437 439
l 439 369
l 439 367
l 366 439
l 437 366
l 440 437
l 438 440
l 441 438
l 433 441
l 435 441
l 436 441
l 436 442
l 442 441
l 442 444
l 444 445
l 445 442
l 445 443
l 443 442
l 425 382
l 429 382
l 419 427
l 403 419
l 419 447
l 447 427
l 447 429
l 447 446
l 446 429
l 403 406
l 261 375
l 375 374
l 375 448
l 448 374
l 448 432
l 448 436
l 436 432
l 376 450
l 450 375
l 375 376
l 450 449
l 449 375
l 450 451
l 451 449
l 452 451
l 451 388
l 388 452
l 450 388
l 376 388
l 258 376
l 375 258
l 376 386
l 264 376
l 264 386
l 366 367
l 453 366
l 437 453
l 453 454
l 454 366
l 454 365
l 365 366
l 440 454
l 453 440
l 444 455
l 455 445
l 444 449
l 449 455
l 455 456
l 456 445
l 451 455
l 429 385
l 446 385
l 449 448
l 419 446
l 457 446
l 419 457
l 420 458
l 458 419
l 458 446
l 458 459
l 459 446
l 418 422
l 422 420
l 460 420
l 422 460
l 458 461
l 461 459
l 461 462
l 462 459
l 464 463
l 463 465
l 465 464
l 463 459
l 459 465
l 461 465
l 460 458
l 460 461
l 415 422
l 418 415
l 459 385
l 463 385
l 465 466
l 466 463
l 467 389
l 389 463
l 463 467
l 470 445
l 456 470
l 451 456
l 451 471
l 471 456
l 452 472
l 472 451
l 472 471
l 388 473
l 473 452
l 390 473
l 474 473
l 390 474
l 389 474
l 474 476
l 476 475
l 475 474
l 474 465
l 465 476
l 466 389
l 465 389
l 461 477
l 477 476
l 476 461
l 469 438
l 438 468
l 468 469
l 441 468
l 442 468
l 478 469
l 469 443
l 443 478
l 479 443
l 445 479
l 470 479
l 456 480
l 480 470
l 472 482
l 482 471
l 472 483
l 483 482
l 475 481
l 481 473
l 473 475
l 481 472
l 472 473
l 472 484
l 484 483
l 481 484
l 483 485
l 485 482
l 485 486
l 486 482
l 484 487
l 487 485
l 485 484
l 488 484
l 484 475
l 475 488
l 385 467
l 467 384
l 467 378
l 489 448
l 449 489
l 442 449
l 442 489
l 448 442
l 410 413
l 408 413
l 408 417
l 413 492
l 492 417
l 492 421
l 421 417
l 413 421
l 490 364
l 365 490
l 490 409
l 409 364
l 493 491
l 491 494
l 494 493
l 408 491
l 491 421
l 421 408
l 494 495
l 495 493
l 496 495
l 494 496
l 490 494
l 491 490
l 408 490
l 408 409
l 454 490
l 454 497
l 497 490
l 490 498
l 498 494
l 478 498
l 498 469
l 497 469
l 498 497
l 442 469
l 440 497
l 440 499
l 499 497
l 469 440
l 409 363
l 460 500
l 500 461
l 500 477
l 502 503
l 503 504
l 504 502
l 502 507
l 507 503
l 502 505
l 505 508
l 508 502
l 508 507
l 508 503
l 510 502
l 502 509
l 509 510
l 503 512
l 512 502
l 512 506
l 506 502
l 512 511
l 511 506
l 511 502
l 511 510
l 470 510
l 511 470
l 513 510
l 510 514
l 514 513
l 470 514
l 509 505
l 509 481
l 481 505
l 510 481
l 481 508
l 508 515
l 515 503
l 508 516
l 516 515
l 518 516
l 508 518
l 508 476
l 476 518
l 510 484
l 513 484
l 519 513
l 513 520
l 520 519
l 514 520
l 511 521
l 521 470
l 511 514
l 514 521
l 415 501
l 501 422
l 501 523
l 523 422
l 523 460
l 523 500
l 501 500
l 517 523
l 501 517
l 501 524
l 524 517
l 517 500
l 517 525
l 525 500
l 518 477
l 500 518
l 525 518
l 501 526
l 526 524
l 421 526
l 501 421
l 480 514
l 485 519
l 519 486
l 487 519
l 486 528
l 528 482
l 480 482
l 528 480
l 519 528
l 520 528
l 471 480
l 417 501
l 479 478
l 478 529
l 529 530
l 530 478
l 522 531
l 531 478
l 478 522
l 531 498
l 530 522
l 527 479
l 479 514
l 514 527
l 521 522
l 522 514
l 522 527
l 527 520
l 532 520
l 527 532
l 514 532
l 478 527
l 476 533
l 533 518
l 534 533
l 476 534
l 508 534
l 533 488
l 488 476
l 533 484
l 534 484
l 535 488
l 488 487
l 487 535
l 484 508
l 516 503
l 516 536
l 536 503
l 516 517
l 517 536
l 516 525
l 476 537
l 537 533
l 538 536
l 517 538
l 536 539
l 539 503
l 539 512
l 536 495
l 495 539
l 538 495
l 511 522
l 511 478
l 478 512
l 512 531
l 539 531
l 496 531
l 539 496
l 496 498
l 476 541
l 541 537
l 533 541
l 477 533
l 491 543
l 543 421
l 543 526
l 493 543
l 540 544
l 544 543
l 543 540
l 495 540
l 543 495
l 545 538
l 517 545
l 517 542
l 542 545
l 545 495
l 545 540
l 546 547
l 547 524
l 524 546
l 526 546
l 526 544
l 544 546
l 519 484
l 545 546
l 544 545
l 520 480
l 547 542
l 542 524
l 546 542
